<?xml version="1.0" standalone="no"?>
<!DOCTYPE svg PUBLIC "-//W3C//DTD SVG 20010904//EN"
 "http://www.w3.org/TR/2001/REC-SVG-20010904/DTD/svg10.dtd">
<svg version="1.0" xmlns="http://www.w3.org/2000/svg"
 width="750.000000pt" height="432.000000pt" viewBox="0 0 750.000000 432.000000"
 preserveAspectRatio="xMidYMid meet">

<g transform="translate(0.000000,432.000000) scale(0.100000,-0.100000)"
fill="#000000" stroke="none">
<path d="M7211 4198 c-61 -23 -87 -118 -32 -118 24 0 91 66 91 90 0 26 -29 40
-59 28z"/>
<path d="M7070 4172 c-33 -33 -38 -63 -16 -81 29 -24 91 37 84 82 -5 33 -34
32 -68 -1z"/>
<path d="M7260 4109 c-35 -14 -70 -49 -70 -70 0 -10 9 -23 20 -29 56 -30 141
55 98 98 -14 14 -15 14 -48 1z"/>
<path d="M6991 4054 c-30 -22 -26 -46 14 -82 19 -18 37 -45 40 -60 10 -45 21
-57 51 -57 34 0 47 21 65 114 13 61 13 64 -8 81 -28 22 -131 25 -162 4z"/>
<path d="M6242 4045 c-58 -25 -105 -148 -70 -183 25 -25 57 -13 98 39 44 56
55 86 46 123 -7 30 -34 37 -74 21z"/>
<path d="M6044 4001 c-32 -19 -74 -92 -74 -127 0 -28 28 -64 49 -64 47 0 111
89 111 153 0 58 -31 71 -86 38z"/>
<path d="M7200 3958 c-38 -26 -48 -51 -30 -73 33 -40 124 9 118 63 -4 36 -42
41 -88 10z"/>
<path d="M6324 3928 c-75 -69 -96 -135 -51 -155 31 -15 74 4 114 50 40 45 50
89 29 122 -23 35 -39 31 -92 -17z"/>
<path d="M6075 3803 c-82 -17 -124 -39 -144 -75 -21 -37 -2 -75 47 -94 58 -23
63 -26 91 -78 33 -58 51 -70 84 -55 35 16 46 47 59 167 l11 106 -27 23 c-31
26 -28 26 -121 6z"/>
<path d="M6682 3775 c-34 -29 -48 -70 -31 -91 21 -25 55 -16 93 26 40 45 40
44 26 71 -15 26 -53 24 -88 -6z"/>
<path d="M6842 3773 c-62 -30 -92 -94 -57 -123 20 -17 55 -6 107 33 50 38 59
68 26 91 -28 20 -35 20 -76 -1z"/>
<path d="M6289 3726 c-61 -42 -76 -114 -25 -124 46 -9 96 25 121 83 28 63 -28
87 -96 41z"/>
<path d="M6885 3651 c-53 -24 -79 -54 -70 -81 21 -67 165 -22 165 51 0 18 -7
32 -19 39 -26 13 -29 13 -76 -9z"/>
<path d="M6562 3644 c-32 -22 -28 -59 13 -107 29 -34 35 -48 35 -87 0 -60 26
-89 68 -74 33 11 92 121 99 186 7 56 -6 66 -99 84 -90 17 -89 17 -116 -2z"/>
<path d="M5317 3619 c-45 -24 -88 -86 -89 -130 -1 -36 30 -69 65 -69 31 0 92
46 122 92 64 97 5 162 -98 107z"/>
<path d="M5553 3620 c-80 -49 -119 -153 -69 -185 36 -24 72 -9 138 55 50 48
58 61 58 93 0 26 -6 39 -19 47 -30 16 -73 12 -108 -10z"/>
<path d="M5684 3494 c-57 -30 -120 -87 -127 -116 -7 -25 33 -68 62 -68 54 0
142 56 165 105 21 44 20 61 -4 85 -26 26 -37 25 -96 -6z"/>
<path d="M6815 3495 c-44 -16 -65 -38 -65 -70 0 -32 20 -45 68 -45 35 0 49 6
73 29 61 62 13 117 -76 86z"/>
<path d="M5200 3389 c-61 -25 -88 -81 -57 -123 7 -10 38 -30 67 -44 50 -25 56
-32 77 -85 28 -75 39 -87 75 -87 61 0 87 32 121 155 32 117 33 140 3 169 -24
25 -29 26 -143 25 -65 0 -129 -5 -143 -10z"/>
<path d="M5620 3281 c-50 -16 -90 -42 -103 -69 -39 -76 58 -112 141 -52 61 44
77 83 46 114 -16 17 -43 19 -84 7z"/>
<path d="M5430 2773 c-33 -12 -70 -57 -70 -85 0 -23 7 -32 35 -45 33 -16 38
-16 91 1 89 28 128 81 88 120 -15 16 -109 22 -144 9z"/>
<path d="M5205 2682 c-58 -12 -68 -59 -34 -152 l21 -58 -21 -47 c-28 -63 -27
-100 4 -130 44 -45 93 -30 208 63 83 68 107 100 107 146 0 31 -6 40 -40 63
-143 99 -197 125 -245 115z"/>
<path d="M5607 2666 c-55 -20 -77 -44 -77 -81 0 -47 22 -60 99 -59 155 3 225
59 156 124 -31 29 -121 37 -178 16z"/>
<path d="M3268 2600 c-46 -14 -115 -68 -132 -104 -15 -31 -15 -39 -3 -69 22
-50 63 -64 129 -42 61 20 128 64 151 99 54 82 -31 151 -145 116z"/>
<path d="M3541 2503 c-57 -20 -141 -100 -141 -135 0 -40 36 -78 73 -78 50 0
154 41 196 77 65 55 63 111 -4 139 -42 17 -68 17 -124 -3z"/>
<path d="M5575 2490 c-53 -21 -59 -79 -12 -114 38 -28 148 -35 193 -11 62 33
64 89 4 120 -31 16 -150 20 -185 5z"/>
<path d="M3013 2369 c-38 -11 -73 -52 -73 -86 0 -34 24 -77 55 -97 41 -27 65
-75 65 -131 0 -68 16 -121 43 -140 31 -22 79 -19 117 8 40 27 190 243 190 274
0 67 -40 97 -185 142 -119 36 -169 43 -212 30z"/>
<path d="M5400 2337 c-39 -14 -57 -49 -46 -91 5 -19 19 -33 49 -46 110 -50
249 11 207 90 -23 43 -145 71 -210 47z"/>
<path d="M3633 2300 c-88 -23 -128 -43 -149 -75 -34 -52 20 -115 97 -115 47 0
137 27 173 53 57 40 67 120 17 146 -27 15 -54 13 -138 -9z"/>
<path d="M625 2273 c-112 -45 -169 -121 -140 -189 19 -47 65 -68 130 -59 49 6
152 48 185 77 47 40 64 104 36 140 -34 45 -137 60 -211 31z"/>
<path d="M4472 2173 c-29 -6 -92 -66 -92 -87 0 -30 46 -66 84 -66 51 0 144 38
162 65 18 28 11 60 -15 74 -22 12 -108 21 -139 14z"/>
<path d="M958 2126 c-20 -7 -56 -25 -81 -39 -97 -57 -114 -152 -33 -191 37
-18 42 -18 115 -2 142 30 221 87 221 157 0 69 -122 111 -222 75z"/>
<path d="M4170 2070 c-24 -24 -25 -50 -5 -116 21 -68 19 -98 -10 -152 -29 -54
-31 -72 -10 -112 16 -31 64 -47 109 -36 33 8 172 103 218 149 31 30 38 44 38
76 0 40 -6 48 -99 119 -93 71 -134 92 -177 92 -31 0 -50 -6 -64 -20z"/>
<path d="M3405 2066 c-70 -31 -84 -91 -32 -130 21 -15 42 -21 85 -20 130 1
220 103 131 149 -35 19 -143 19 -184 1z"/>
<path d="M310 2039 c-63 -26 -92 -86 -70 -143 6 -16 28 -50 49 -75 59 -71 61
-80 59 -195 -3 -103 -2 -106 25 -133 23 -23 36 -28 76 -27 61 1 104 31 186
129 33 39 78 92 102 119 37 41 43 55 43 91 0 76 -49 115 -248 195 -109 44
-181 57 -222 39z"/>
<path d="M4640 2041 c-44 -14 -69 -35 -80 -64 -20 -60 19 -87 128 -87 155 0
216 54 142 125 -27 26 -39 30 -98 32 -37 1 -78 -1 -92 -6z"/>
<path d="M1065 1879 c-122 -14 -215 -62 -215 -111 0 -33 29 -77 63 -94 80 -42
256 -7 316 62 50 57 38 126 -26 143 -42 12 -38 12 -138 0z"/>
<path d="M4577 1849 c-26 -15 -38 -54 -27 -84 23 -61 186 -94 246 -49 62 45
58 94 -9 124 -47 22 -179 27 -210 9z"/>
<path d="M4368 1690 c-107 -84 100 -212 218 -135 90 59 24 143 -121 153 -61 4
-74 1 -97 -18z"/>
<path d="M747 1626 c-53 -20 -77 -44 -77 -78 0 -43 16 -65 63 -90 96 -49 277
3 277 79 0 61 -46 89 -157 98 -46 4 -80 1 -106 -9z"/>
<path d="M3085 1324 c-72 -39 -86 -101 -32 -135 66 -42 231 -7 252 54 11 34 0
56 -41 76 -44 22 -143 25 -179 5z"/>
<path d="M2775 1258 c-27 -21 -27 -23 -20 -92 15 -131 13 -146 -29 -206 -33
-48 -37 -60 -33 -95 4 -27 15 -48 33 -64 45 -38 108 -27 235 43 128 71 179
120 179 173 0 34 -8 45 -87 121 -150 142 -214 170 -278 120z"/>
<path d="M3295 1171 c-51 -13 -76 -31 -91 -68 -31 -74 30 -108 192 -108 86 0
105 3 123 19 44 40 17 112 -53 141 -41 17 -133 25 -171 16z"/>
<path d="M1683 971 c-89 -42 -88 -122 2 -156 51 -20 157 -15 205 10 36 19 56
65 40 95 -29 55 -175 85 -247 51z"/>
<path d="M3203 959 c-35 -18 -47 -66 -25 -103 33 -57 150 -98 235 -82 42 8 87
50 87 81 0 33 -34 70 -81 89 -52 21 -186 30 -216 15z"/>
<path d="M1339 934 c-23 -24 -24 -32 -21 -125 3 -109 0 -116 -58 -184 -47 -54
-58 -100 -36 -144 32 -61 101 -76 197 -42 162 57 269 115 288 157 24 53 14 88
-41 151 -29 33 -75 86 -102 117 -62 74 -99 96 -157 96 -36 0 -50 -5 -70 -26z"/>
<path d="M2974 821 c-26 -12 -64 -58 -64 -80 0 -32 39 -79 85 -101 64 -31 125
-37 179 -16 82 31 85 101 7 153 -54 37 -168 60 -207 44z"/>
<path d="M1883 781 c-48 -12 -82 -38 -89 -68 -16 -64 34 -106 155 -130 128
-24 190 -14 211 37 23 56 -33 127 -120 149 -57 16 -123 20 -157 12z"/>
<path d="M1753 544 c-21 -21 -24 -32 -20 -61 10 -60 71 -109 170 -138 44 -13
64 -14 95 -6 84 23 111 70 75 131 -30 51 -150 100 -245 100 -39 0 -54 -5 -75
-26z"/>
<path d="M1500 439 c-58 -23 -78 -96 -40 -149 11 -16 48 -42 82 -59 137 -69
281 -15 238 88 -29 71 -209 147 -280 120z"/>
</g>
</svg>
